<mxfile host="app.diagrams.net" modified="2021-12-08T22:54:18.457Z" agent="5.0 (Windows NT 10.0; Win64; x64) AppleWebKit/537.36 (KHTML, like Gecko) Chrome/95.0.4638.69 Safari/537.36" etag="f_6LY75GU_o_cuR4t3by" version="15.7.3" type="github">
  <diagram id="C5RBs43oDa-KdzZeNtuy" name="Page-1">
    <mxGraphModel dx="1783" dy="2532" grid="1" gridSize="10" guides="1" tooltips="1" connect="1" arrows="1" fold="1" page="1" pageScale="1" pageWidth="1169" pageHeight="1654" math="0" shadow="0">
      <root>
        <mxCell id="WIyWlLk6GJQsqaUBKTNV-0" />
        <mxCell id="WIyWlLk6GJQsqaUBKTNV-1" parent="WIyWlLk6GJQsqaUBKTNV-0" />
        <mxCell id="WIyWlLk6GJQsqaUBKTNV-3" value="&lt;br&gt;Create prospective&lt;br&gt;Job name&lt;br&gt;job number" style="rounded=1;whiteSpace=wrap;html=1;fontSize=12;glass=0;strokeWidth=1;shadow=0;" parent="WIyWlLk6GJQsqaUBKTNV-1" vertex="1">
          <mxGeometry x="370" y="-270" width="250" height="83.34" as="geometry" />
        </mxCell>
        <mxCell id="WIyWlLk6GJQsqaUBKTNV-4" value="Yes" style="rounded=0;html=1;jettySize=auto;orthogonalLoop=1;fontSize=11;endArrow=block;endFill=0;endSize=8;strokeWidth=1;shadow=0;labelBackgroundColor=none;edgeStyle=orthogonalEdgeStyle;" parent="WIyWlLk6GJQsqaUBKTNV-1" source="WIyWlLk6GJQsqaUBKTNV-6" target="WIyWlLk6GJQsqaUBKTNV-10" edge="1">
          <mxGeometry y="20" relative="1" as="geometry">
            <mxPoint as="offset" />
          </mxGeometry>
        </mxCell>
        <mxCell id="WIyWlLk6GJQsqaUBKTNV-5" value="No" style="edgeStyle=orthogonalEdgeStyle;rounded=0;html=1;jettySize=auto;orthogonalLoop=1;fontSize=11;endArrow=block;endFill=0;endSize=8;strokeWidth=1;shadow=0;labelBackgroundColor=none;startArrow=none;entryX=0.5;entryY=0;entryDx=0;entryDy=0;" parent="WIyWlLk6GJQsqaUBKTNV-1" source="cPw_VPNf6wPY1jQEnryU-47" target="WIyWlLk6GJQsqaUBKTNV-7" edge="1">
          <mxGeometry y="10" relative="1" as="geometry">
            <mxPoint as="offset" />
            <mxPoint x="590" y="140" as="targetPoint" />
          </mxGeometry>
        </mxCell>
        <mxCell id="WIyWlLk6GJQsqaUBKTNV-6" value="Is this a new&amp;nbsp;&lt;br&gt;client" style="rhombus;whiteSpace=wrap;html=1;shadow=0;fontFamily=Helvetica;fontSize=12;align=center;strokeWidth=1;spacing=6;spacingTop=-4;" parent="WIyWlLk6GJQsqaUBKTNV-1" vertex="1">
          <mxGeometry x="422" y="-120" width="100" height="80" as="geometry" />
        </mxCell>
        <mxCell id="WIyWlLk6GJQsqaUBKTNV-7" value="Question Objective of job" style="rounded=1;whiteSpace=wrap;html=1;fontSize=12;glass=0;strokeWidth=1;shadow=0;" parent="WIyWlLk6GJQsqaUBKTNV-1" vertex="1">
          <mxGeometry x="400" y="380" width="155" height="130" as="geometry" />
        </mxCell>
        <mxCell id="WIyWlLk6GJQsqaUBKTNV-8" value="yes" style="rounded=0;html=1;jettySize=auto;orthogonalLoop=1;fontSize=11;endArrow=block;endFill=0;endSize=8;strokeWidth=1;shadow=0;labelBackgroundColor=none;edgeStyle=orthogonalEdgeStyle;" parent="WIyWlLk6GJQsqaUBKTNV-1" source="WIyWlLk6GJQsqaUBKTNV-10" target="WIyWlLk6GJQsqaUBKTNV-11" edge="1">
          <mxGeometry x="0.6221" y="24" relative="1" as="geometry">
            <mxPoint as="offset" />
          </mxGeometry>
        </mxCell>
        <mxCell id="WIyWlLk6GJQsqaUBKTNV-10" value="log clients&lt;br&gt;details&amp;nbsp;" style="rhombus;whiteSpace=wrap;html=1;shadow=0;fontFamily=Helvetica;fontSize=12;align=center;strokeWidth=1;spacing=6;spacingTop=-4;" parent="WIyWlLk6GJQsqaUBKTNV-1" vertex="1">
          <mxGeometry x="200" y="-120" width="132.5" height="106" as="geometry" />
        </mxCell>
        <mxCell id="WIyWlLk6GJQsqaUBKTNV-11" value="Question&amp;nbsp;&lt;br&gt;clients security and business credentials&lt;br&gt;create client security and credit rating&amp;nbsp;" style="rounded=1;whiteSpace=wrap;html=1;fontSize=12;glass=0;strokeWidth=1;shadow=0;" parent="WIyWlLk6GJQsqaUBKTNV-1" vertex="1">
          <mxGeometry x="158.12" y="70.00000000000003" width="164.38" height="92.08" as="geometry" />
        </mxCell>
        <mxCell id="cPw_VPNf6wPY1jQEnryU-5" value="" style="endArrow=classic;html=1;rounded=0;exitX=0.998;exitY=0.609;exitDx=0;exitDy=0;exitPerimeter=0;entryX=-0.046;entryY=0.685;entryDx=0;entryDy=0;entryPerimeter=0;" edge="1" parent="WIyWlLk6GJQsqaUBKTNV-1" source="WIyWlLk6GJQsqaUBKTNV-11" target="cPw_VPNf6wPY1jQEnryU-47">
          <mxGeometry width="50" height="50" relative="1" as="geometry">
            <mxPoint x="310" y="480" as="sourcePoint" />
            <mxPoint x="410" y="220" as="targetPoint" />
          </mxGeometry>
        </mxCell>
        <mxCell id="cPw_VPNf6wPY1jQEnryU-7" value="" style="endArrow=classic;html=1;rounded=0;entryX=0.5;entryY=0;entryDx=0;entryDy=0;exitX=0.465;exitY=1.015;exitDx=0;exitDy=0;exitPerimeter=0;" edge="1" parent="WIyWlLk6GJQsqaUBKTNV-1" source="WIyWlLk6GJQsqaUBKTNV-7" target="cPw_VPNf6wPY1jQEnryU-15">
          <mxGeometry width="50" height="50" relative="1" as="geometry">
            <mxPoint x="450" y="570" as="sourcePoint" />
            <mxPoint x="150.9000000000001" y="596.8800000000001" as="targetPoint" />
          </mxGeometry>
        </mxCell>
        <mxCell id="cPw_VPNf6wPY1jQEnryU-11" style="edgeStyle=orthogonalEdgeStyle;rounded=0;orthogonalLoop=1;jettySize=auto;html=1;" edge="1" parent="WIyWlLk6GJQsqaUBKTNV-1">
          <mxGeometry relative="1" as="geometry">
            <mxPoint x="502.5" y="950" as="targetPoint" />
            <mxPoint x="502.5" y="920" as="sourcePoint" />
          </mxGeometry>
        </mxCell>
        <mxCell id="cPw_VPNf6wPY1jQEnryU-12" value="Question Legal Risks" style="rounded=0;whiteSpace=wrap;html=1;" vertex="1" parent="WIyWlLk6GJQsqaUBKTNV-1">
          <mxGeometry x="360" y="600" width="240" height="120" as="geometry" />
        </mxCell>
        <mxCell id="cPw_VPNf6wPY1jQEnryU-14" value="Question deliverable risks" style="rounded=0;whiteSpace=wrap;html=1;" vertex="1" parent="WIyWlLk6GJQsqaUBKTNV-1">
          <mxGeometry x="640" y="600" width="200" height="120" as="geometry" />
        </mxCell>
        <mxCell id="cPw_VPNf6wPY1jQEnryU-15" value="Question&amp;nbsp;&lt;br&gt;Commercial Risks" style="rounded=0;whiteSpace=wrap;html=1;" vertex="1" parent="WIyWlLk6GJQsqaUBKTNV-1">
          <mxGeometry x="70" y="590" width="240" height="130" as="geometry" />
        </mxCell>
        <mxCell id="cPw_VPNf6wPY1jQEnryU-17" value="" style="endArrow=classic;html=1;rounded=0;" edge="1" parent="WIyWlLk6GJQsqaUBKTNV-1" source="WIyWlLk6GJQsqaUBKTNV-7" target="cPw_VPNf6wPY1jQEnryU-12">
          <mxGeometry width="50" height="50" relative="1" as="geometry">
            <mxPoint x="460" y="560" as="sourcePoint" />
            <mxPoint x="510" y="510" as="targetPoint" />
          </mxGeometry>
        </mxCell>
        <mxCell id="cPw_VPNf6wPY1jQEnryU-18" value="" style="endArrow=classic;html=1;rounded=0;entryX=0.295;entryY=-0.005;entryDx=0;entryDy=0;entryPerimeter=0;" edge="1" parent="WIyWlLk6GJQsqaUBKTNV-1" target="cPw_VPNf6wPY1jQEnryU-14">
          <mxGeometry width="50" height="50" relative="1" as="geometry">
            <mxPoint x="480" y="510" as="sourcePoint" />
            <mxPoint x="700" y="540" as="targetPoint" />
          </mxGeometry>
        </mxCell>
        <mxCell id="cPw_VPNf6wPY1jQEnryU-19" value="Data Collated in a Risk Matrix&lt;br&gt;&lt;br&gt;(Client Maturity and Security index) X (Job Risk value)" style="whiteSpace=wrap;html=1;aspect=fixed;" vertex="1" parent="WIyWlLk6GJQsqaUBKTNV-1">
          <mxGeometry x="500" y="2340" width="300" height="300" as="geometry" />
        </mxCell>
        <mxCell id="cPw_VPNf6wPY1jQEnryU-20" value="" style="endArrow=classic;html=1;rounded=0;exitX=0.829;exitY=1;exitDx=0;exitDy=0;exitPerimeter=0;" edge="1" parent="WIyWlLk6GJQsqaUBKTNV-1" source="cPw_VPNf6wPY1jQEnryU-15">
          <mxGeometry width="50" height="50" relative="1" as="geometry">
            <mxPoint x="260" y="1120" as="sourcePoint" />
            <mxPoint x="221" y="840" as="targetPoint" />
          </mxGeometry>
        </mxCell>
        <mxCell id="cPw_VPNf6wPY1jQEnryU-21" value="" style="endArrow=classic;html=1;rounded=0;" edge="1" parent="WIyWlLk6GJQsqaUBKTNV-1" source="cPw_VPNf6wPY1jQEnryU-12">
          <mxGeometry width="50" height="50" relative="1" as="geometry">
            <mxPoint x="470" y="1090" as="sourcePoint" />
            <mxPoint x="480" y="840" as="targetPoint" />
          </mxGeometry>
        </mxCell>
        <mxCell id="cPw_VPNf6wPY1jQEnryU-23" value="" style="endArrow=classic;html=1;rounded=0;exitX=0.325;exitY=1;exitDx=0;exitDy=0;exitPerimeter=0;" edge="1" parent="WIyWlLk6GJQsqaUBKTNV-1" source="cPw_VPNf6wPY1jQEnryU-14">
          <mxGeometry width="50" height="50" relative="1" as="geometry">
            <mxPoint x="600" y="1110" as="sourcePoint" />
            <mxPoint x="705" y="850" as="targetPoint" />
          </mxGeometry>
        </mxCell>
        <mxCell id="cPw_VPNf6wPY1jQEnryU-24" value="Job sent for Review and approval from higher orders" style="rounded=0;whiteSpace=wrap;html=1;" vertex="1" parent="WIyWlLk6GJQsqaUBKTNV-1">
          <mxGeometry x="500" y="2780" width="320" height="180" as="geometry" />
        </mxCell>
        <mxCell id="cPw_VPNf6wPY1jQEnryU-25" value="" style="endArrow=classic;html=1;rounded=0;entryX=0.5;entryY=0;entryDx=0;entryDy=0;exitX=0.5;exitY=1;exitDx=0;exitDy=0;" edge="1" parent="WIyWlLk6GJQsqaUBKTNV-1" source="cPw_VPNf6wPY1jQEnryU-19" target="cPw_VPNf6wPY1jQEnryU-24">
          <mxGeometry width="50" height="50" relative="1" as="geometry">
            <mxPoint x="510" y="1670" as="sourcePoint" />
            <mxPoint x="560" y="1620" as="targetPoint" />
          </mxGeometry>
        </mxCell>
        <mxCell id="cPw_VPNf6wPY1jQEnryU-29" value="&lt;div class=&quot;OutlineElement Ltr  BCX0 SCXW264903473&quot; style=&quot;margin: 0px ; padding: 0px ; overflow: visible ; cursor: text ; clear: both ; position: relative ; direction: ltr ; font-family: &amp;#34;segoe ui&amp;#34; , &amp;#34;segoe ui web&amp;#34; , &amp;#34;arial&amp;#34; , &amp;#34;verdana&amp;#34; , sans-serif ; background-color: rgb(255 , 255 , 255)&quot;&gt;&lt;p class=&quot;Paragraph SCXW264903473 BCX0&quot; style=&quot;margin: 0px ; padding: 0px ; overflow-wrap: break-word ; vertical-align: baseline ; background-color: transparent&quot;&gt;&lt;font style=&quot;font-size: 8px&quot;&gt;&lt;span lang=&quot;EN-AU&quot; class=&quot;TextRun SCXW264903473 BCX0&quot; style=&quot;margin: 0px ; padding: 0px ; line-height: 19.425px ; font-family: &amp;#34;calibri&amp;#34; , &amp;#34;calibri_embeddedfont&amp;#34; , &amp;#34;calibri_msfontservice&amp;#34; , sans-serif&quot;&gt;Is the Project&amp;nbsp; billed as:&lt;/span&gt;&lt;/font&gt;&lt;/p&gt;&lt;p class=&quot;Paragraph SCXW264903473 BCX0&quot; style=&quot;margin: 0px ; padding: 0px ; overflow-wrap: break-word ; vertical-align: baseline ; background-color: transparent&quot;&gt;&lt;ol&gt;&lt;li style=&quot;text-align: left&quot;&gt;&lt;font style=&quot;font-size: 8px&quot;&gt;&lt;span lang=&quot;EN-AU&quot; class=&quot;TextRun SCXW264903473 BCX0&quot; style=&quot;margin: 0px ; padding: 0px ; line-height: 19.425px ; font-family: &amp;#34;calibri&amp;#34; , &amp;#34;calibri_embeddedfont&amp;#34; , &amp;#34;calibri_msfontservice&amp;#34; , sans-serif&quot;&gt;talent as service&lt;/span&gt;&lt;/font&gt;&lt;/li&gt;&lt;li style=&quot;text-align: left&quot;&gt;&lt;font style=&quot;font-size: 8px&quot;&gt;&lt;span lang=&quot;EN-AU&quot; class=&quot;TextRun SCXW264903473 BCX0&quot; style=&quot;margin: 0px ; padding: 0px ; line-height: 19.425px ; font-family: &amp;#34;calibri&amp;#34; , &amp;#34;calibri_embeddedfont&amp;#34; , &amp;#34;calibri_msfontservice&amp;#34; , sans-serif&quot;&gt;Time and Materials&lt;/span&gt;&lt;/font&gt;&lt;/li&gt;&lt;li style=&quot;text-align: left&quot;&gt;&lt;font style=&quot;font-size: 8px&quot;&gt;&lt;span lang=&quot;EN-AU&quot; class=&quot;TextRun SCXW264903473 BCX0&quot; style=&quot;margin: 0px ; padding: 0px ; line-height: 19.425px ; font-family: &amp;#34;calibri&amp;#34; , &amp;#34;calibri_embeddedfont&amp;#34; , &amp;#34;calibri_msfontservice&amp;#34; , sans-serif&quot;&gt;Fixed Price&lt;/span&gt;&lt;/font&gt;&lt;/li&gt;&lt;/ol&gt;&lt;/p&gt;&lt;/div&gt;" style="rounded=0;whiteSpace=wrap;html=1;align=center;" vertex="1" parent="WIyWlLk6GJQsqaUBKTNV-1">
          <mxGeometry x="90" y="840" width="169" height="160" as="geometry" />
        </mxCell>
        <mxCell id="cPw_VPNf6wPY1jQEnryU-30" value="Can we meet the deliverable timeframe&lt;br&gt;&lt;ol&gt;&lt;li style=&quot;text-align: left&quot;&gt;yes&amp;nbsp;&lt;/li&gt;&lt;li style=&quot;text-align: left&quot;&gt;yes but we will need to pull resources from other projects&lt;/li&gt;&lt;li style=&quot;text-align: left&quot;&gt;no&lt;/li&gt;&lt;/ol&gt;" style="whiteSpace=wrap;html=1;aspect=fixed;fontSize=8;align=center;" vertex="1" parent="WIyWlLk6GJQsqaUBKTNV-1">
          <mxGeometry x="670" y="1400" width="150" height="150" as="geometry" />
        </mxCell>
        <mxCell id="cPw_VPNf6wPY1jQEnryU-32" value="Are there Service line agreements&amp;nbsp;&lt;br&gt;or penalties&lt;br&gt;&lt;div style=&quot;text-align: left&quot;&gt;&lt;ol&gt;&lt;li&gt;&lt;span style=&quot;font-size: 8px&quot;&gt;Yes&amp;nbsp;&lt;/span&gt;&lt;/li&gt;&lt;li&gt;No&lt;/li&gt;&lt;/ol&gt;&lt;/div&gt;" style="whiteSpace=wrap;html=1;aspect=fixed;fontSize=8;align=center;" vertex="1" parent="WIyWlLk6GJQsqaUBKTNV-1">
          <mxGeometry x="90" y="1080" width="150" height="150" as="geometry" />
        </mxCell>
        <mxCell id="cPw_VPNf6wPY1jQEnryU-33" value="&lt;div style=&quot;text-align: center&quot;&gt;&lt;span&gt;&lt;font style=&quot;font-size: 6px&quot;&gt;Is Billing&lt;/font&gt;&lt;/span&gt;&lt;/div&gt;&lt;font style=&quot;font-size: 8px&quot;&gt;&lt;br&gt;&lt;/font&gt;&lt;ol&gt;&lt;li&gt;&lt;font style=&quot;font-size: 6px&quot;&gt;In Advance&lt;/font&gt;&lt;/li&gt;&lt;li&gt;&lt;font style=&quot;font-size: 6px&quot;&gt;As earned&lt;/font&gt;&lt;/li&gt;&lt;li&gt;&lt;font style=&quot;font-size: 6px&quot;&gt;Milestone&amp;nbsp;&lt;br&gt;&lt;br&gt;&lt;/font&gt;&lt;/li&gt;&lt;/ol&gt;" style="whiteSpace=wrap;html=1;aspect=fixed;fontSize=8;align=left;" vertex="1" parent="WIyWlLk6GJQsqaUBKTNV-1">
          <mxGeometry x="90" y="1430" width="150" height="150" as="geometry" />
        </mxCell>
        <mxCell id="cPw_VPNf6wPY1jQEnryU-34" value="Are we Dealing with&lt;br&gt;PII&lt;br&gt;&lt;ol&gt;&lt;li&gt;No&lt;/li&gt;&lt;li&gt;Yes and to what scale&lt;/li&gt;&lt;/ol&gt;" style="rounded=0;whiteSpace=wrap;html=1;fontSize=6;align=center;" vertex="1" parent="WIyWlLk6GJQsqaUBKTNV-1">
          <mxGeometry x="418" y="840" width="120" height="110" as="geometry" />
        </mxCell>
        <mxCell id="cPw_VPNf6wPY1jQEnryU-35" value="Is there&lt;br&gt;Regulatary Risk&lt;br&gt;&lt;ol&gt;&lt;li&gt;No&lt;/li&gt;&lt;li&gt;Yes and to what scale&lt;/li&gt;&lt;/ol&gt;" style="whiteSpace=wrap;html=1;aspect=fixed;fontSize=6;align=center;" vertex="1" parent="WIyWlLk6GJQsqaUBKTNV-1">
          <mxGeometry x="418" y="1000" width="130" height="130" as="geometry" />
        </mxCell>
        <mxCell id="cPw_VPNf6wPY1jQEnryU-36" value="Is there informational Risk&amp;nbsp;&lt;br&gt;&lt;ol&gt;&lt;li&gt;No&amp;nbsp;&lt;/li&gt;&lt;li&gt;yes and to what scale&lt;/li&gt;&lt;/ol&gt;" style="rounded=0;whiteSpace=wrap;html=1;fontSize=6;align=center;" vertex="1" parent="WIyWlLk6GJQsqaUBKTNV-1">
          <mxGeometry x="420" y="1180" width="140" height="110" as="geometry" />
        </mxCell>
        <mxCell id="cPw_VPNf6wPY1jQEnryU-38" value="&lt;font style=&quot;font-size: 8px&quot;&gt;Have we Deployed this tech before&lt;br&gt;&lt;ol&gt;&lt;li&gt;&lt;font style=&quot;font-size: 8px&quot;&gt;Yes onshore&lt;/font&gt;&lt;/li&gt;&lt;li&gt;&lt;font style=&quot;font-size: 8px&quot;&gt;Yes partnered globally&lt;/font&gt;&lt;/li&gt;&lt;li&gt;&lt;font style=&quot;font-size: 8px&quot;&gt;yes offshore only&lt;/font&gt;&lt;/li&gt;&lt;li&gt;&lt;font style=&quot;font-size: 8px&quot;&gt;No&amp;nbsp; &amp;nbsp; &amp;nbsp;&amp;nbsp;&lt;/font&gt;&lt;/li&gt;&lt;/ol&gt;&lt;/font&gt;" style="rounded=0;whiteSpace=wrap;html=1;fontSize=6;align=center;" vertex="1" parent="WIyWlLk6GJQsqaUBKTNV-1">
          <mxGeometry x="660" y="840" width="190" height="110" as="geometry" />
        </mxCell>
        <mxCell id="cPw_VPNf6wPY1jQEnryU-39" value="Is this emerging tech and how many implemen tation have we had&lt;br&gt;&lt;ol&gt;&lt;li&gt;1-10&lt;/li&gt;&lt;li&gt;10-50&lt;/li&gt;&lt;li&gt;50+&lt;/li&gt;&lt;/ol&gt;" style="rounded=0;whiteSpace=wrap;html=1;fontSize=8;align=center;" vertex="1" parent="WIyWlLk6GJQsqaUBKTNV-1">
          <mxGeometry x="660" y="1000" width="190" height="100" as="geometry" />
        </mxCell>
        <mxCell id="cPw_VPNf6wPY1jQEnryU-40" value="what scope does it take&lt;br&gt;&lt;ul&gt;&lt;li style=&quot;text-align: left&quot;&gt;requirement gathering&lt;/li&gt;&lt;li style=&quot;text-align: left&quot;&gt;Archi Design&lt;/li&gt;&lt;li style=&quot;text-align: left&quot;&gt;Design&lt;/li&gt;&lt;li style=&quot;text-align: left&quot;&gt;Business Process&lt;/li&gt;&lt;li style=&quot;text-align: left&quot;&gt;Tech Design&lt;/li&gt;&lt;li style=&quot;text-align: left&quot;&gt;Build&lt;/li&gt;&lt;li style=&quot;text-align: left&quot;&gt;Project Manage&lt;/li&gt;&lt;li style=&quot;text-align: left&quot;&gt;Testing&lt;/li&gt;&lt;li style=&quot;text-align: left&quot;&gt;Integration&lt;/li&gt;&lt;/ul&gt;" style="whiteSpace=wrap;html=1;aspect=fixed;fontSize=8;align=center;" vertex="1" parent="WIyWlLk6GJQsqaUBKTNV-1">
          <mxGeometry x="660" y="1169" width="191" height="191" as="geometry" />
        </mxCell>
        <mxCell id="cPw_VPNf6wPY1jQEnryU-41" value="What Services are involve&lt;br&gt;&lt;ul&gt;&lt;li&gt;Consulting&lt;/li&gt;&lt;li&gt;DX/EE&lt;/li&gt;&lt;li&gt;Digital Network&lt;/li&gt;&lt;li&gt;Data&lt;/li&gt;&lt;li&gt;Clouds&lt;/li&gt;&lt;li&gt;Salesforce (thats Us)&lt;/li&gt;&lt;li&gt;SAP&lt;/li&gt;&lt;li&gt;ORACLE&lt;/li&gt;&lt;/ul&gt;" style="rounded=0;whiteSpace=wrap;html=1;fontSize=8;align=center;" vertex="1" parent="WIyWlLk6GJQsqaUBKTNV-1">
          <mxGeometry x="660" y="1590" width="190" height="160" as="geometry" />
        </mxCell>
        <mxCell id="cPw_VPNf6wPY1jQEnryU-43" value="" style="endArrow=classic;html=1;rounded=0;fontSize=8;exitX=0.5;exitY=1;exitDx=0;exitDy=0;entryX=0.75;entryY=0;entryDx=0;entryDy=0;" edge="1" parent="WIyWlLk6GJQsqaUBKTNV-1" source="cPw_VPNf6wPY1jQEnryU-41" target="cPw_VPNf6wPY1jQEnryU-50">
          <mxGeometry width="50" height="50" relative="1" as="geometry">
            <mxPoint x="830" y="1650" as="sourcePoint" />
            <mxPoint x="740" y="2020" as="targetPoint" />
          </mxGeometry>
        </mxCell>
        <mxCell id="cPw_VPNf6wPY1jQEnryU-45" value="" style="endArrow=classic;html=1;rounded=0;fontSize=8;exitX=0.5;exitY=1;exitDx=0;exitDy=0;" edge="1" parent="WIyWlLk6GJQsqaUBKTNV-1" source="cPw_VPNf6wPY1jQEnryU-36" target="cPw_VPNf6wPY1jQEnryU-50">
          <mxGeometry width="50" height="50" relative="1" as="geometry">
            <mxPoint x="440" y="1410" as="sourcePoint" />
            <mxPoint x="580" y="2040" as="targetPoint" />
          </mxGeometry>
        </mxCell>
        <mxCell id="cPw_VPNf6wPY1jQEnryU-46" value="" style="endArrow=classic;html=1;rounded=0;fontSize=8;exitX=0.413;exitY=1.013;exitDx=0;exitDy=0;exitPerimeter=0;entryX=0.081;entryY=-0.012;entryDx=0;entryDy=0;entryPerimeter=0;" edge="1" parent="WIyWlLk6GJQsqaUBKTNV-1" source="cPw_VPNf6wPY1jQEnryU-33" target="cPw_VPNf6wPY1jQEnryU-50">
          <mxGeometry width="50" height="50" relative="1" as="geometry">
            <mxPoint x="120" y="1770" as="sourcePoint" />
            <mxPoint x="520" y="1980" as="targetPoint" />
            <Array as="points" />
          </mxGeometry>
        </mxCell>
        <mxCell id="cPw_VPNf6wPY1jQEnryU-47" value="Client maturity&amp;nbsp;&lt;br&gt;and security index established for new client&lt;br&gt;or requalified through previous experience&amp;nbsp;" style="whiteSpace=wrap;html=1;aspect=fixed;" vertex="1" parent="WIyWlLk6GJQsqaUBKTNV-1">
          <mxGeometry x="390" y="70" width="148" height="148" as="geometry" />
        </mxCell>
        <mxCell id="cPw_VPNf6wPY1jQEnryU-48" value="" style="edgeStyle=orthogonalEdgeStyle;rounded=0;html=1;jettySize=auto;orthogonalLoop=1;fontSize=11;endArrow=none;endFill=0;endSize=8;strokeWidth=1;shadow=0;labelBackgroundColor=none;" edge="1" parent="WIyWlLk6GJQsqaUBKTNV-1" source="WIyWlLk6GJQsqaUBKTNV-6" target="cPw_VPNf6wPY1jQEnryU-47">
          <mxGeometry y="10" relative="1" as="geometry">
            <mxPoint as="offset" />
            <mxPoint x="455" y="100" as="sourcePoint" />
            <mxPoint x="477.5" y="380" as="targetPoint" />
          </mxGeometry>
        </mxCell>
        <mxCell id="cPw_VPNf6wPY1jQEnryU-49" value="" style="endArrow=classic;html=1;rounded=0;fontSize=8;entryX=0.61;entryY=0.1;entryDx=0;entryDy=0;entryPerimeter=0;" edge="1" parent="WIyWlLk6GJQsqaUBKTNV-1" target="WIyWlLk6GJQsqaUBKTNV-6">
          <mxGeometry width="50" height="50" relative="1" as="geometry">
            <mxPoint x="483" y="-190" as="sourcePoint" />
            <mxPoint x="500" y="-170" as="targetPoint" />
            <Array as="points">
              <mxPoint x="472" y="-120" />
            </Array>
          </mxGeometry>
        </mxCell>
        <mxCell id="cPw_VPNf6wPY1jQEnryU-50" value="Qualify and Quantify&lt;br&gt;we have all 3 Risk parameters&lt;br&gt;filled a&amp;nbsp;" style="whiteSpace=wrap;html=1;aspect=fixed;fontSize=8;align=center;" vertex="1" parent="WIyWlLk6GJQsqaUBKTNV-1">
          <mxGeometry x="560" y="2060" width="180" height="180" as="geometry" />
        </mxCell>
      </root>
    </mxGraphModel>
  </diagram>
</mxfile>
